<?xml version="1.0" encoding="UTF-8"?>
<svg id="Layer_1" data-name="Layer 1" xmlns="http://www.w3.org/2000/svg" viewBox="0 0 193.49 128.38">
  <defs>
    <style>
      .cls-1 {
        fill: #ff991c;
      }

      .cls-1, .cls-2 {
        stroke-width: 0px;
      }

      .cls-3 {
        stroke-miterlimit: 10;
        stroke-width: .8px;
      }

      .cls-3, .cls-4 {
        fill: none;
        stroke: #fff;
      }

      .cls-4 {
        stroke-width: 1.6px;
      }

      .cls-2 {
        fill: #fff;
      }
    </style>
  </defs>
  <g>
    <path class="cls-1" d="M181.71,28.24c-.04.42-.38.52-.7.64-1.52.55-3.06,1.06-4.56,1.66-4.83,1.92-8.21,5.31-10.12,10.13-.59,1.48-1.1,3-1.64,4.5-.11.31-.21.69-.63.68-.42,0-.52-.37-.64-.69-.5-1.38-.97-2.77-1.5-4.15-2.04-5.35-5.8-8.95-11.2-10.85-1.23-.43-2.46-.88-3.68-1.32-.3-.11-.63-.2-.62-.61,0-.41.34-.5.63-.6,1.73-.64,3.51-1.2,5.2-1.94,4.74-2.06,7.97-5.58,9.75-10.42.49-1.32.95-2.65,1.43-3.97.11-.32.22-.68.64-.68.42,0,.51.38.63.69.5,1.36.98,2.73,1.49,4.08,1.99,5.3,5.67,8.88,10.99,10.82,1.3.47,2.61.94,3.92,1.41.3.11.6.23.63.62Z"/>
    <path class="cls-1" d="M193.49,8.91c-.02.23-.21.3-.38.36-.53.2-1.06.4-1.6.58-3,1.01-5,2.99-6,6-.17.52-.37,1.03-.56,1.54-.07.19-.13.43-.4.43-.26,0-.3-.25-.38-.45-.24-.65-.48-1.3-.72-1.95-.99-2.63-2.81-4.43-5.44-5.42-.63-.24-1.27-.45-1.9-.69-.21-.08-.49-.13-.46-.43.02-.25.27-.29.46-.37,1.17-.46,2.4-.79,3.49-1.44,1.92-1.15,3.2-2.81,3.95-4.9.21-.59.43-1.18.64-1.78.07-.18.13-.38.36-.38.23,0,.31.19.37.37.22.59.44,1.18.65,1.77,1,2.84,2.93,4.74,5.76,5.75.59.21,1.19.42,1.78.64.18.07.36.13.38.37Z"/>
    <path class="cls-1" d="M188.88,45.29c-.03.17-.17.22-.3.27-.42.15-.85.31-1.28.46-2.12.75-3.57,2.17-4.31,4.29-.15.44-.32.88-.48,1.32-.05.13-.11.27-.29.26-.15-.01-.2-.14-.24-.26-.21-.57-.41-1.15-.63-1.71-.72-1.78-1.98-3.04-3.77-3.75-.55-.22-1.11-.41-1.67-.62-.13-.05-.28-.1-.28-.27,0-.17.14-.23.28-.28.48-.18.97-.35,1.45-.53,1.97-.73,3.34-2.07,4.07-4.05.17-.47.34-.94.52-1.4.06-.15.08-.37.31-.36.22,0,.24.22.3.37.16.42.31.85.46,1.27.73,2.05,2.13,3.44,4.18,4.18.47.17.94.34,1.41.51.14.05.26.11.27.28Z"/>
  </g>
  <path class="cls-4" d="M164.1,55.88v55.3c0,9.06-6.91,16.4-15.44,16.4H16.24c-8.53,0-15.44-7.34-15.44-16.4V44.98c0-9.06,6.91-16.4,15.44-16.4h120.26"/>
  <g>
    <path class="cls-2" d="M32.33,37.83l10.63,33.4h.41l10.65-33.4h10.32l-15.17,44h-11.99l-15.19-44h10.34ZM69.71,81.83v-44h29v7.6h-19.8l.2,10.6h17.8v7.6h-17.8v18.2h-9.4ZM113.84,37.83l8.88,15h.34l8.92-15h10.52l-13.43,22,13.73,22h-10.73l-9.01-15h-.34l-9.01,15h-10.68l13.77-22-13.51-22h10.56Z"/>
    <path class="cls-2" d="M41.48,106.23h-2.68c-.1-.57-.29-1.08-.58-1.51s-.62-.8-1.03-1.11c-.41-.3-.86-.53-1.37-.69-.5-.15-1.03-.23-1.59-.23-1.01,0-1.92.25-2.72.76-.8.51-1.43,1.26-1.89,2.24-.46.98-.69,2.19-.69,3.61s.23,2.64.69,3.62c.46.98,1.1,1.73,1.9,2.23.8.5,1.7.76,2.71.76.56,0,1.08-.07,1.58-.22.5-.15.96-.38,1.37-.68.41-.3.75-.66,1.03-1.09.29-.44.48-.93.59-1.49h2.68c-.14.87-.42,1.67-.83,2.4-.41.72-.93,1.35-1.57,1.87-.64.52-1.36.92-2.18,1.21-.82.29-1.71.43-2.68.43-1.52,0-2.88-.36-4.07-1.08-1.19-.73-2.13-1.77-2.82-3.12-.68-1.35-1.02-2.96-1.02-4.83s.34-3.49,1.03-4.83c.69-1.35,1.63-2.39,2.82-3.11,1.19-.73,2.54-1.09,4.06-1.09.93,0,1.8.13,2.61.4.81.26,1.54.65,2.19,1.17.65.51,1.18,1.13,1.61,1.87.42.73.71,1.57.86,2.52ZM66.93,109.34c0,1.86-.34,3.47-1.02,4.81-.68,1.34-1.62,2.36-2.8,3.09-1.18.72-2.53,1.07-4.03,1.07s-2.86-.36-4.05-1.07c-1.18-.72-2.11-1.75-2.8-3.09-.68-1.34-1.02-2.94-1.02-4.8s.34-3.46,1.02-4.8c.68-1.34,1.61-2.37,2.8-3.09,1.19-.72,2.54-1.08,4.05-1.08s2.85.36,4.03,1.08c1.19.72,2.12,1.74,2.8,3.09.68,1.34,1.02,2.93,1.02,4.8ZM64.32,109.34c0-1.42-.23-2.62-.69-3.59-.45-.98-1.08-1.72-1.88-2.22-.79-.51-1.68-.76-2.68-.76s-1.9.25-2.69.76c-.79.5-1.41,1.24-1.88,2.22-.45.97-.68,2.17-.68,3.59s.23,2.62.68,3.6c.46.97,1.09,1.71,1.88,2.22.79.5,1.69.75,2.69.75s1.89-.25,2.68-.75c.8-.51,1.42-1.24,1.88-2.22.46-.98.69-2.18.69-3.6ZM78.05,118.03h-2.8l6.26-17.4h3.03l6.26,17.4h-2.8l-4.91-14.2h-.14l-4.91,14.2ZM78.6,111.23h9v2.2h-9v-2.2ZM114.29,106.23h-2.68c-.1-.57-.29-1.08-.58-1.51-.28-.44-.62-.8-1.03-1.11-.41-.3-.86-.53-1.37-.69-.5-.15-1.03-.23-1.59-.23-1.01,0-1.92.25-2.72.76-.8.51-1.43,1.26-1.89,2.24-.46.98-.69,2.19-.69,3.61s.23,2.64.69,3.62c.46.98,1.1,1.73,1.9,2.23s1.7.76,2.7.76c.56,0,1.08-.07,1.58-.22.5-.15.96-.38,1.37-.68.41-.3.75-.66,1.03-1.09.29-.44.48-.93.59-1.49h2.68c-.14.87-.42,1.67-.83,2.4-.41.72-.93,1.35-1.57,1.87-.64.52-1.36.92-2.18,1.21-.82.29-1.71.43-2.68.43-1.52,0-2.88-.36-4.07-1.08-1.19-.73-2.13-1.77-2.82-3.12-.68-1.35-1.02-2.96-1.02-4.83s.34-3.49,1.03-4.83c.69-1.35,1.63-2.39,2.82-3.11,1.19-.73,2.54-1.09,4.06-1.09.93,0,1.8.13,2.61.4.81.26,1.54.65,2.19,1.17.65.51,1.18,1.13,1.61,1.87.42.73.71,1.57.86,2.52ZM124.6,118.03v-17.4h2.6v7.6h8.8v-7.6h2.6v17.4h-2.6v-7.6h-8.8v7.6h-2.6Z"/>
    <line class="cls-3" x1="21.99" y1="91.05" x2="142.91" y2="91.05"/>
  </g>
</svg>